<svg
  xmlns="http://www.w3.org/2000/svg"
  width="97"
  fill="none"
  viewBox="0 0 84 94"
  class="sc-8bbfd8c5-4 blJbqD"
>
  <path
    fill="#0080BC"
    fill-rule="evenodd"
    d="M42.473 1.55c-.344-.524.289-1.137.802-.777L64.757 15.81c13.54 9.477 19.774 26.398 15.482 42.344a38 38 0 0 1-1.048 3.296c-.212.574-1.057.45-1.1-.16-.362-5.193-4.1-11.129-6.814-15.437-.484-.77-.936-1.487-1.33-2.139-2.638-4.363-21.73-33.43-27.474-42.165M14.03 43.84l25.714-42.31c.298-.492-.24-1.064-.75-.798C34.5 3.076 22.37 9.857 12.848 19.367c-10.436 10.423-2.002 21.858.261 24.546.25.297.719.26.92-.072m25.078 49.044c.344.523-.288 1.135-.802.776L16.823 78.624C3.283 69.147-2.951 52.226 1.342 36.28c.34-1.264.704-2.37 1.047-3.296.213-.575 1.057-.45 1.1.16.362 5.193 4.1 11.129 6.814 15.437.485.77.936 1.487 1.33 2.138 2.638 4.364 21.73 33.43 27.474 42.166m2.733.014 25.714-42.31a.57.57 0 0 1 .92-.072c2.264 2.687 10.698 14.123.262 24.545-9.523 9.51-21.652 16.291-26.147 18.635-.51.266-1.048-.307-.75-.798"
    clip-rule="evenodd"
  ></path>
</svg>
