<svg width="33" height="32" viewBox="0 0 33 32" fill="none" xmlns="http://www.w3.org/2000/svg">
<g clip-path="url(#clip0_4_15)">
<path fill-rule="evenodd" clip-rule="evenodd" d="M30.0124 2.08738C27.064 -0.861015 21.6904 -0.508816 16.0914 2.50998C15.2554 2.95998 15.318 4.80799 16.1094 5.29139C20.4579 7.98107 24.1192 11.6479 26.8024 16.0004C27.2836 16.7924 29.153 16.8196 29.5898 16.0084C29.487 15.8172 29.3812 15.6263 29.2724 15.4358C29.3807 15.6263 29.4865 15.8172 29.5898 16.0084C32.6086 10.4094 32.9608 5.03578 30.0124 2.08738ZM23.7814 8.31839C22.18 6.70859 20.4255 5.25874 18.5428 3.98938C20.7104 2.98698 22.7752 2.44958 24.5242 2.44958C26.088 2.44958 27.4002 2.87838 28.3098 3.78798C30.2398 5.71798 30.0104 9.45339 28.1106 13.5572C26.8396 11.6756 25.3898 9.92118 23.7814 8.31839Z" fill="#FFC750"/>
<path fill-rule="evenodd" clip-rule="evenodd" d="M31.3146 20.0456C30.868 18.6486 30.2905 17.2969 29.5898 16.0084C29.147 15.1852 27.282 15.21 26.8024 16.0004C25.4726 18.1752 23.8867 20.1827 22.0788 21.9798C20.2852 23.7886 18.2812 25.3758 16.1096 26.7074C15.318 27.1908 15.2824 29.054 16.0916 29.4886C19.072 31.0966 21.9884 31.948 24.5102 31.948C26.724 31.948 28.6338 31.292 30.0124 29.9132C32.17 27.7558 32.6308 24.252 31.3146 20.0456ZM28.3098 28.2106C26.3798 30.1406 22.6464 29.9092 18.5428 28.0094C20.4255 26.7401 22.18 25.2902 23.7814 23.6804C25.3903 22.0805 26.8408 20.3287 28.1126 18.4496C30.0104 22.5514 30.2398 26.2826 28.3098 28.2106Z" fill="#FF6895"/>
<path fill-rule="evenodd" clip-rule="evenodd" d="M16.0914 2.51C14.8027 1.80831 13.4502 1.23077 12.0522 0.785205C7.84799 -0.530796 4.34399 -0.070195 2.18659 2.08721C0.807994 3.46601 0.151794 5.376 0.151794 7.59C0.151794 10.1118 1.00319 13.03 2.60919 16.0106C3.04599 16.8198 4.90919 16.7832 5.39259 15.9906C8.083 11.6384 11.7528 7.97469 16.1096 5.29161C16.8962 4.81361 16.9126 2.951 16.0916 2.5102M4.09059 13.5574C2.19059 9.45361 1.95939 5.71821 3.88939 3.78821C5.38079 2.29681 8.02539 2.0452 11.334 3.0838C12.1262 3.33464 12.9019 3.6351 13.6564 3.9834C9.89243 6.54278 6.64674 9.79125 4.09059 13.5574Z" fill="#5FC5A6"/>
<path fill-rule="evenodd" clip-rule="evenodd" d="M16.1096 26.7072C13.9306 25.3776 11.9196 23.7904 10.12 21.98C8.30944 20.1805 6.72215 18.1696 5.39239 15.9906C4.91279 15.2046 3.04979 15.1896 2.60899 16.0106C1.90886 17.2984 1.33203 18.6494 0.886191 20.0458C-0.432009 24.2522 0.0307909 27.756 2.18619 29.9134C3.53879 31.264 5.41859 31.9502 7.66859 31.9502C9.15856 31.9276 10.6365 31.6793 12.052 31.2136C13.4497 30.7671 14.8021 30.1896 16.0912 29.4888C16.7412 29.1408 16.8952 27.187 16.1092 26.7074M11.3332 28.9174C8.02459 29.9536 5.38019 29.7022 3.88879 28.2108C2.39739 26.7194 2.14579 24.0748 3.18239 20.7662C3.4328 19.9744 3.73327 19.1994 4.08199 18.4458C5.35538 20.3265 6.80782 22.0797 8.41899 23.6806C10.0194 25.2926 11.7733 26.7444 13.6558 28.0156C12.9018 28.3656 12.126 28.6667 11.3334 28.9172" fill="#5666F6"/>
<path fill-rule="evenodd" clip-rule="evenodd" d="M10.7284 15.8546L16.1 7.41357L21.4716 15.8546L16.1 18.9242L10.7284 15.8546Z" fill="#1F294F"/>
<path fill-rule="evenodd" clip-rule="evenodd" d="M10.7284 17.2964L16.1 20.3658L21.4716 17.2964L16.1 24.5864L10.7284 17.2964Z" fill="#1F294F"/>
<path fill-rule="evenodd" clip-rule="evenodd" d="M18.5428 3.98921C17.7085 4.37851 16.8963 4.81322 16.1096 5.29141C15.318 4.80797 14.4988 4.37123 13.6562 3.98341C14.4428 3.45188 15.2555 2.96013 16.0914 2.51001C16.9126 2.95081 17.7297 3.44388 18.5428 3.98921Z" fill="#5F9A34"/>
<path fill-rule="evenodd" clip-rule="evenodd" d="M29.5898 16.0084C29.1378 16.8459 28.6448 17.6606 28.1126 18.4496C27.7209 17.6099 27.2835 16.7923 26.8024 16.0004C27.2819 15.21 27.7185 14.3944 28.1104 13.5572C28.6539 14.3681 29.147 15.1852 29.5898 16.0084Z" fill="#FF512F"/>
<path fill-rule="evenodd" clip-rule="evenodd" d="M18.5428 28.0094C18.3738 28.1242 18.2048 28.2348 18.0356 28.3434C17.4031 28.7509 16.7546 29.1329 16.0916 29.4886C15.2824 29.0539 14.4706 28.5629 13.6562 28.0154C14.4988 27.6276 15.318 27.1908 16.1096 26.7074C16.8954 27.187 17.7078 27.6216 18.5428 28.0094Z" fill="#552990"/>
<path fill-rule="evenodd" clip-rule="evenodd" d="M5.39259 15.9902C4.90912 16.7829 4.47166 17.6027 4.08239 18.4456C3.5523 17.6581 3.06066 16.8454 2.60919 16.0104C3.0619 15.1685 3.55625 14.3497 4.09039 13.557C4.47814 14.392 4.91304 15.2044 5.39259 15.9902Z" fill="#204FA0"/>
</g>
<defs>
<clipPath id="clip0_4_15">
<rect width="33" height="32" fill="white"/>
</clipPath>
</defs>
</svg>
