<svg width="105" height="17" viewBox="0 0 105 17" fill="none" xmlns="http://www.w3.org/2000/svg">
<g clip-path="url(#clip0_4_27)">
<path d="M100.936 14.7098V16.043C100.703 16.1796 100.438 16.2506 100.169 16.2482C99.6346 16.261 99.1119 16.0933 98.685 15.7723C98.2581 15.4512 97.9519 14.9956 97.816 14.479C97.0987 15.2533 96.1665 15.7957 95.1388 16.0365C94.1112 16.2773 93.035 16.2057 92.0484 15.8307C91.0618 15.4558 90.2097 14.7946 89.6014 13.932C88.9931 13.0695 88.6563 12.0449 88.6343 10.9896C88.6123 9.93439 88.9061 8.89663 89.4779 8.00947C90.0497 7.12232 90.8735 6.42622 91.8437 6.01047C92.8138 5.59472 93.8861 5.47828 94.9228 5.67608C95.9596 5.87388 96.9137 6.3769 97.6626 7.12062V5.78742H99.248V13.3766C99.248 14.3252 99.734 14.7098 100.296 14.7098H100.936ZM97.6626 10.9152C97.6606 10.1773 97.4399 9.45653 97.0285 8.84395C96.6171 8.23138 96.0333 7.75447 95.351 7.47348C94.6686 7.19248 93.9184 7.12001 93.1949 7.2652C92.4714 7.4104 91.8071 7.76676 91.286 8.28926C90.765 8.81176 90.4104 9.47697 90.2672 10.2009C90.124 10.9247 90.1985 11.6748 90.4814 12.3564C90.7642 13.038 91.2427 13.6204 91.8564 14.0302C92.4701 14.4399 93.1915 14.6586 93.9294 14.6586C94.4203 14.658 94.9063 14.5607 95.3596 14.3722C95.813 14.1837 96.2247 13.9078 96.5714 13.5602C96.918 13.2126 97.1928 12.8001 97.3801 12.3462C97.5673 11.8924 97.6633 11.4062 97.6626 10.9152ZM102.934 0.582224H104.6V16.2488H102.934V0.582224ZM86.2784 10.8462C86.2823 11.9065 85.9742 12.9446 85.3922 13.8309C84.8103 14.7173 83.9805 15.4128 83.006 15.8308C82.0361 16.2415 80.9653 16.3523 79.9318 16.1491C78.8983 15.9458 77.9494 15.4377 77.2072 14.6902V16.041H75.6184V0.249023H77.2072V7.00202C77.9494 6.25458 78.8983 5.74648 79.9318 5.54319C80.9653 5.33991 82.0361 5.45074 83.006 5.86142C83.9805 6.27943 84.8104 6.97499 85.3923 7.8614C85.9742 8.74781 86.2824 9.78588 86.2784 10.8462ZM84.6896 10.8462C84.6797 10.1084 84.4518 9.39002 84.0346 8.78137C83.6175 8.17273 83.0297 7.70101 82.3452 7.42554C81.6607 7.15007 80.91 7.08315 80.1875 7.2332C79.465 7.38324 78.8031 7.74355 78.2849 8.26881C77.7666 8.79408 77.4153 9.46084 77.275 10.1853C77.1347 10.9097 77.2117 11.6594 77.4964 12.3401C77.7811 13.0209 78.2607 13.6023 78.8749 14.0112C79.4891 14.4201 80.2105 14.6382 80.9484 14.6382C81.4414 14.6393 81.9296 14.5419 82.3845 14.3518C82.8394 14.1617 83.2517 13.8827 83.5974 13.5312C84.3014 12.8153 84.6939 11.8503 84.6896 10.8462ZM61.9606 10.9156C61.9619 9.68327 62.3904 8.48948 63.1731 7.5376C63.9558 6.58571 65.0443 5.9346 66.2531 5.69517C67.462 5.45575 68.7165 5.64281 69.8029 6.2245C70.8893 6.80619 71.7405 7.74653 72.2115 8.88535C72.6824 10.0242 72.744 11.291 72.3857 12.4701C72.0274 13.6493 71.2714 14.6677 70.2465 15.352C69.2216 16.0363 67.9912 16.3442 66.7648 16.2231C65.5384 16.102 64.3919 15.5595 63.5206 14.688C63.0255 14.1925 62.633 13.6043 62.3653 12.957C62.0976 12.3097 61.9601 11.6161 61.9606 10.9156ZM71.0316 10.9156C71.0311 10.1758 70.8113 9.4527 70.3999 8.83778C69.9886 8.22286 69.4041 7.74371 68.7204 7.46092C68.0368 7.17812 67.2846 7.10438 66.5591 7.249C65.8335 7.39363 65.1671 7.75013 64.6441 8.27344C64.1212 8.79676 63.7651 9.46338 63.6209 10.189C63.4768 10.9147 63.551 11.6668 63.8342 12.3503C64.1175 13.0337 64.597 13.6179 65.2121 14.0289C65.8273 14.4399 66.5506 14.6592 67.2904 14.6592C67.7819 14.6591 68.2685 14.5622 68.7225 14.374C69.1765 14.1858 69.589 13.91 69.9364 13.5624C70.2839 13.2147 70.5594 12.8021 70.7473 12.3479C70.9352 11.8938 71.0318 11.4071 71.0316 10.9156ZM53.9656 7.73022V8.19442C53.9924 12.2164 51.0926 15.6334 47.1926 16.1752C43.2926 16.717 39.6052 14.2156 38.5802 10.3324C37.5552 6.44922 39.5114 2.39182 43.149 0.856223C44.9137 0.117425 46.8894 0.0578083 48.6954 0.688855C50.5014 1.3199 52.01 2.59697 52.9306 4.27402L51.5424 5.07362C50.8452 3.78916 49.7109 2.79702 48.345 2.2771C46.9792 1.75717 45.4722 1.74388 44.0974 2.23962C42.717 2.75745 41.5608 3.74124 40.8287 5.02097C40.0966 6.30071 39.8345 7.79599 40.0878 9.24842C40.3057 10.703 41.0376 12.0314 42.1509 12.9927C43.2641 13.954 44.685 14.4845 46.1559 14.4881C47.6267 14.4916 49.0501 13.968 50.168 13.0121C51.2859 12.0562 52.0243 10.7314 52.2492 9.27782H46.166V7.73022H53.9656ZM57.2968 0.582224H58.9624V16.2488H57.2968V0.582224ZM35.644 0.582224V16.2488H32.287V9.93002H26.0346V16.2488H22.6522V0.582224H26.0346V6.87502H32.287V0.582024L35.644 0.582224ZM21.3198 3.63722H17.495V16.2488H14.177V3.63722H10.3268V0.582224H21.3198V3.63722ZM3.4106 3.61122V6.90122H8.4746V9.93002H3.4106V13.22H9.3274V16.2488H0V0.582224H9.3274V3.61102L3.4106 3.61122Z" fill="#1F294F"/>
</g>
<defs>
<clipPath id="clip0_4_27">
<rect width="105" height="17" fill="white"/>
</clipPath>
</defs>
</svg>
