<svg width="145" height="32" viewBox="0 0 145 32" fill="none" xmlns="http://www.w3.org/2000/svg">
<g clip-path="url(#clip0_4_2)">
<path fill-rule="evenodd" clip-rule="evenodd" d="M30.0124 2.08738C27.064 -0.861015 21.6904 -0.508816 16.0914 2.50998C15.2554 2.95998 15.318 4.80799 16.1094 5.29139C20.4579 7.98107 24.1192 11.6479 26.8024 16.0004C27.2836 16.7924 29.153 16.8196 29.5898 16.0084C29.487 15.8172 29.3812 15.6263 29.2724 15.4358C29.3807 15.6263 29.4865 15.8172 29.5898 16.0084C32.6086 10.4094 32.9608 5.03578 30.0124 2.08738ZM23.7814 8.31839C22.18 6.70859 20.4255 5.25874 18.5428 3.98938C20.7104 2.98698 22.7752 2.44958 24.5242 2.44958C26.088 2.44958 27.4002 2.87838 28.3098 3.78798C30.2398 5.71798 30.0104 9.45339 28.1106 13.5572C26.8396 11.6756 25.3898 9.92118 23.7814 8.31839Z" fill="#FFC750"/>
<path fill-rule="evenodd" clip-rule="evenodd" d="M31.3146 20.0456C30.868 18.6486 30.2905 17.2969 29.5898 16.0084C29.147 15.1852 27.282 15.21 26.8024 16.0004C25.4726 18.1752 23.8867 20.1827 22.0788 21.9798C20.2852 23.7886 18.2812 25.3758 16.1096 26.7074C15.318 27.1908 15.2824 29.054 16.0916 29.4886C19.072 31.0966 21.9884 31.948 24.5102 31.948C26.724 31.948 28.6338 31.292 30.0124 29.9132C32.17 27.7558 32.6308 24.252 31.3146 20.0456ZM28.3098 28.2106C26.3798 30.1406 22.6464 29.9092 18.5428 28.0094C20.4255 26.7401 22.18 25.2902 23.7814 23.6804C25.3903 22.0805 26.8408 20.3287 28.1126 18.4496C30.0104 22.5514 30.2398 26.2826 28.3098 28.2106Z" fill="#FF6895"/>
<path fill-rule="evenodd" clip-rule="evenodd" d="M16.0914 2.51C14.8027 1.80831 13.4502 1.23077 12.0522 0.785205C7.84799 -0.530796 4.34399 -0.070195 2.18659 2.08721C0.807994 3.46601 0.151794 5.376 0.151794 7.59C0.151794 10.1118 1.00319 13.03 2.60919 16.0106C3.04599 16.8198 4.90919 16.7832 5.39259 15.9906C8.083 11.6384 11.7528 7.97469 16.1096 5.29161C16.8962 4.81361 16.9126 2.951 16.0916 2.5102M4.09059 13.5574C2.19059 9.45361 1.95939 5.71821 3.88939 3.78821C5.38079 2.29681 8.02539 2.0452 11.334 3.0838C12.1262 3.33464 12.9019 3.6351 13.6564 3.9834C9.89243 6.54278 6.64674 9.79125 4.09059 13.5574Z" fill="#5FC5A6"/>
<path fill-rule="evenodd" clip-rule="evenodd" d="M16.1096 26.7072C13.9306 25.3776 11.9196 23.7904 10.12 21.98C8.30944 20.1805 6.72215 18.1696 5.39239 15.9906C4.91279 15.2046 3.04979 15.1896 2.60899 16.0106C1.90886 17.2984 1.33203 18.6494 0.886191 20.0458C-0.432009 24.2522 0.0307909 27.756 2.18619 29.9134C3.53879 31.264 5.41859 31.9502 7.66859 31.9502C9.15856 31.9276 10.6365 31.6793 12.052 31.2136C13.4497 30.7671 14.8021 30.1896 16.0912 29.4888C16.7412 29.1408 16.8952 27.187 16.1092 26.7074M11.3332 28.9174C8.02459 29.9536 5.38019 29.7022 3.88879 28.2108C2.39739 26.7194 2.14579 24.0748 3.18239 20.7662C3.4328 19.9744 3.73327 19.1994 4.08199 18.4458C5.35538 20.3265 6.80782 22.0797 8.41899 23.6806C10.0194 25.2926 11.7733 26.7444 13.6558 28.0156C12.9018 28.3656 12.126 28.6667 11.3334 28.9172" fill="#5666F6"/>
<path fill-rule="evenodd" clip-rule="evenodd" d="M10.7284 15.8546L16.1 7.41357L21.4716 15.8546L16.1 18.9242L10.7284 15.8546Z" fill="#1F294F"/>
<path fill-rule="evenodd" clip-rule="evenodd" d="M10.7284 17.2964L16.1 20.3658L21.4716 17.2964L16.1 24.5864L10.7284 17.2964Z" fill="#1F294F"/>
<path fill-rule="evenodd" clip-rule="evenodd" d="M18.5428 3.98921C17.7085 4.37851 16.8963 4.81322 16.1096 5.29141C15.318 4.80797 14.4988 4.37123 13.6562 3.98341C14.4428 3.45188 15.2555 2.96013 16.0914 2.51001C16.9126 2.95081 17.7297 3.44388 18.5428 3.98921Z" fill="#5F9A34"/>
<path fill-rule="evenodd" clip-rule="evenodd" d="M29.5898 16.0084C29.1378 16.8459 28.6448 17.6606 28.1126 18.4496C27.7209 17.6099 27.2835 16.7923 26.8024 16.0004C27.2819 15.21 27.7185 14.3944 28.1104 13.5572C28.6539 14.3681 29.147 15.1852 29.5898 16.0084Z" fill="#FF512F"/>
<path fill-rule="evenodd" clip-rule="evenodd" d="M18.5428 28.0094C18.3738 28.1242 18.2048 28.2348 18.0356 28.3434C17.4031 28.7509 16.7546 29.1329 16.0916 29.4886C15.2824 29.0539 14.4706 28.5629 13.6562 28.0154C14.4988 27.6276 15.318 27.1908 16.1096 26.7074C16.8954 27.187 17.7078 27.6216 18.5428 28.0094Z" fill="#552990"/>
<path fill-rule="evenodd" clip-rule="evenodd" d="M5.39259 15.9902C4.90912 16.7829 4.47166 17.6027 4.08239 18.4456C3.5523 17.6581 3.06066 16.8454 2.60919 16.0104C3.0619 15.1685 3.55625 14.3497 4.09039 13.557C4.47814 14.392 4.91304 15.2044 5.39259 15.9902Z" fill="#204FA0"/>
<path d="M140.936 22.7098V24.043C140.703 24.1796 140.438 24.2506 140.169 24.2482C139.635 24.261 139.112 24.0933 138.685 23.7723C138.258 23.4512 137.952 22.9956 137.816 22.479C137.099 23.2533 136.166 23.7957 135.139 24.0365C134.111 24.2773 133.035 24.2057 132.048 23.8307C131.062 23.4558 130.21 22.7946 129.601 21.932C128.993 21.0695 128.656 20.0449 128.634 18.9896C128.612 17.9344 128.906 16.8966 129.478 16.0095C130.05 15.1223 130.874 14.4262 131.844 14.0105C132.814 13.5947 133.886 13.4783 134.923 13.6761C135.96 13.8739 136.914 14.3769 137.663 15.1206V13.7874H139.248V21.3766C139.248 22.3252 139.734 22.7098 140.296 22.7098H140.936ZM137.663 18.9152C137.661 18.1773 137.44 17.4565 137.028 16.844C136.617 16.2314 136.033 15.7545 135.351 15.4735C134.669 15.1925 133.918 15.12 133.195 15.2652C132.471 15.4104 131.807 15.7668 131.286 16.2893C130.765 16.8118 130.41 17.477 130.267 18.2009C130.124 18.9247 130.199 19.6748 130.481 20.3564C130.764 21.038 131.243 21.6204 131.856 22.0302C132.47 22.4399 133.191 22.6586 133.929 22.6586C134.42 22.658 134.906 22.5607 135.36 22.3722C135.813 22.1837 136.225 21.9078 136.571 21.5602C136.918 21.2126 137.193 20.8001 137.38 20.3462C137.567 19.8924 137.663 19.4062 137.663 18.9152ZM142.934 8.58222H144.6V24.2488H142.934V8.58222ZM126.278 18.8462C126.282 19.9065 125.974 20.9446 125.392 21.8309C124.81 22.7173 123.98 23.4128 123.006 23.8308C122.036 24.2415 120.965 24.3523 119.932 24.1491C118.898 23.9458 117.949 23.4377 117.207 22.6902V24.041H115.618V8.24902H117.207V15.002C117.949 14.2546 118.898 13.7465 119.932 13.5432C120.965 13.3399 122.036 13.4507 123.006 13.8614C123.98 14.2794 124.81 14.975 125.392 15.8614C125.974 16.7478 126.282 17.7859 126.278 18.8462ZM124.69 18.8462C124.68 18.1084 124.452 17.39 124.035 16.7814C123.617 16.1727 123.03 15.701 122.345 15.4255C121.661 15.1501 120.91 15.0832 120.188 15.2332C119.465 15.3832 118.803 15.7435 118.285 16.2688C117.767 16.7941 117.415 17.4608 117.275 18.1853C117.135 18.9097 117.212 19.6594 117.496 20.3401C117.781 21.0209 118.261 21.6023 118.875 22.0112C119.489 22.4201 120.211 22.6382 120.948 22.6382C121.441 22.6393 121.93 22.5419 122.385 22.3518C122.839 22.1617 123.252 21.8827 123.597 21.5312C124.301 20.8153 124.694 19.8503 124.69 18.8462ZM101.961 18.9156C101.962 17.6833 102.39 16.4895 103.173 15.5376C103.956 14.5857 105.044 13.9346 106.253 13.6952C107.462 13.4557 108.716 13.6428 109.803 14.2245C110.889 14.8062 111.741 15.7465 112.211 16.8853C112.682 18.0242 112.744 19.291 112.386 20.4701C112.027 21.6493 111.271 22.6677 110.247 23.352C109.222 24.0363 107.991 24.3442 106.765 24.2231C105.538 24.102 104.392 23.5595 103.521 22.688C103.026 22.1925 102.633 21.6043 102.365 20.957C102.098 20.3097 101.96 19.6161 101.961 18.9156ZM111.032 18.9156C111.031 18.1758 110.811 17.4527 110.4 16.8378C109.989 16.2229 109.404 15.7437 108.72 15.4609C108.037 15.1781 107.285 15.1044 106.559 15.249C105.833 15.3936 105.167 15.7501 104.644 16.2734C104.121 16.7968 103.765 17.4634 103.621 18.189C103.477 18.9147 103.551 19.6668 103.834 20.3503C104.117 21.0337 104.597 21.6179 105.212 22.0289C105.827 22.4399 106.551 22.6592 107.29 22.6592C107.782 22.6591 108.269 22.5622 108.723 22.374C109.177 22.1858 109.589 21.91 109.936 21.5624C110.284 21.2147 110.559 20.8021 110.747 20.3479C110.935 19.8938 111.032 19.4071 111.032 18.9156ZM93.9656 15.7302V16.1944C93.9924 20.2164 91.0926 23.6334 87.1926 24.1752C83.2926 24.717 79.6052 22.2156 78.5802 18.3324C77.5552 14.4492 79.5114 10.3918 83.149 8.85622C84.9137 8.11743 86.8894 8.05781 88.6954 8.68885C90.5014 9.3199 92.01 10.597 92.9306 12.274L91.5424 13.0736C90.8452 11.7892 89.7109 10.797 88.345 10.2771C86.9792 9.75717 85.4722 9.74388 84.0974 10.2396C82.717 10.7575 81.5608 11.7412 80.8287 13.021C80.0966 14.3007 79.8345 15.796 80.0878 17.2484C80.3057 18.703 81.0376 20.0314 82.1509 20.9927C83.2641 21.954 84.685 22.4845 86.1559 22.4881C87.6267 22.4916 89.0501 21.968 90.168 21.0121C91.2859 20.0562 92.0243 18.7314 92.2492 17.2778H86.166V15.7302H93.9656ZM97.2968 8.58222H98.9624V24.2488H97.2968V8.58222ZM75.644 8.58222V24.2488H72.287V17.93H66.0346V24.2488H62.6522V8.58222H66.0346V14.875H72.287V8.58202L75.644 8.58222ZM61.3198 11.6372H57.495V24.2488H54.177V11.6372H50.3268V8.58222H61.3198V11.6372ZM43.4106 11.6112V14.9012H48.4746V17.93H43.4106V21.22H49.3274V24.2488H40V8.58222H49.3274V11.611L43.4106 11.6112Z" fill="#1F294F"/>
</g>
<defs>
<clipPath id="clip0_4_2">
<rect width="145" height="32" fill="white"/>
</clipPath>
</defs>
</svg>
